<?xml version="1.0" encoding="UTF-8"?>
<svg version="1.1" xmlns="http://www.w3.org/2000/svg" width="775" height="809">
<path d="M0 0 C0.68818314 0.21135086 1.37636627 0.42270172 2.08540344 0.64045715 C4.41196035 1.35901966 6.73330555 2.09302802 9.0546875 2.828125 C10.75520598 3.35956164 12.45581127 3.89072056 14.15649414 4.42163086 C220.31911117 69.08043805 220.31911117 69.08043805 233.7734375 88.77734375 C236.63297086 91.82854873 239.47708856 92.2039664 243.4296875 92.890625 C260.20142351 96.51392607 273.51488192 110.32714426 285.1953125 122.33203125 C288.27780469 125.43535109 291.60395697 128.24098259 294.9296875 131.078125 C295.9912213 132.00352109 297.0523913 132.9293346 298.11328125 133.85546875 C299.26005368 134.84677423 300.40719015 135.83765874 301.5546875 136.828125 C302.09311279 137.30032471 302.63153809 137.77252441 303.1862793 138.2590332 C306.56136711 141.14953012 309.88097522 143.25438073 313.9296875 145.078125 C307.89497978 136.60586867 300.8472836 129.11899522 293.7565918 121.53344727 C292.54049686 120.23186978 291.32581015 118.9289751 290.11254883 117.62475586 C287.45612704 114.77032639 284.79392452 111.92733168 282.06640625 109.140625 C278.83671671 105.76155588 276.30842896 102.91135621 274.3671875 98.640625 C275.90754898 88.88500231 286.41825292 78.91629438 293.65844727 72.56054688 C296.49657728 70.70812019 299.0526198 70.06937075 302.34765625 69.265625 C303.72706789 68.91941886 305.10637465 68.57279471 306.4855957 68.22583008 C307.23298004 68.04114166 307.98036438 67.85645325 308.75039673 67.66616821 C327.88903231 62.91106063 346.82272918 57.44066371 365.7421875 51.890625 C366.44406063 51.68477406 367.14593376 51.47892311 367.86907578 51.26683426 C399.67313334 41.93434425 431.38692478 32.32274735 462.98828125 22.32421875 C463.62908253 22.1215357 464.2698838 21.91885265 464.9301033 21.71002769 C471.81453522 19.53222988 478.69711155 17.34877525 485.57617188 15.15405273 C495.42738772 12.01755862 505.27710363 8.89289286 515.23046875 6.09375 C515.93908554 5.89252533 516.64770233 5.69130066 517.37779236 5.48397827 C523.16042663 3.89620878 529.14159524 2.27161882 534.7890625 4.96484375 C538.85856496 7.88132052 539.95565377 11.42063109 540.9296875 16.078125 C541.39940676 19.15637587 541.70944002 22.23847291 541.99047852 25.33911133 C542.07345216 26.21593221 542.1564258 27.09275309 542.2419138 27.99614429 C543.06003064 36.95418051 543.56390027 45.91691229 543.95703125 54.90234375 C543.99734907 55.79159735 544.03766689 56.68085094 544.07920647 57.59705162 C545.27627816 84.26403116 545.81301382 110.95435475 546.39860535 137.64030075 C546.49309106 141.9424537 546.58963608 146.24455919 546.68640137 150.54666138 C547.44322537 184.25351705 548.177277 217.96142907 548.64637375 251.67370224 C548.67888294 253.95906541 548.71387757 256.24437773 548.74954224 258.5296936 C548.99158677 274.34631441 548.96074589 290.14347441 548.5703125 305.95703125 C548.54668262 307.06048543 548.54668262 307.06048543 548.52257538 308.18623161 C547.9805923 332.37306833 547.9805923 332.37306833 541.9296875 339.078125 C527.93840815 349.64931385 504.01735261 349.87407321 487.2421875 351.203125 C485.81362427 351.31648193 485.81362427 351.31648193 484.35620117 351.43212891 C480.8823513 351.6825423 477.4073301 351.88969693 473.9296875 352.078125 C473.14434631 352.12156036 472.35900513 352.16499573 471.54986572 352.20974731 C452.37968267 353.226018 433.2087474 353.26574184 414.01757812 353.26342773 C410.45177177 353.26334608 406.88609283 353.27036911 403.3203125 353.28393555 C338.1004778 353.52815532 338.1004778 353.52815532 322.2578125 338.6015625 C310.11517353 325.44024576 302.85444135 307.96258199 294.9296875 292.078125 C294.40181641 291.02496094 293.87394531 289.97179687 293.33007812 288.88671875 C291.9316837 286.08254077 290.55078257 283.27073577 289.1796875 280.453125 C288.78587891 279.65632324 288.39207031 278.85952148 287.98632812 278.03857422 C285.53645105 272.90575655 284.00822524 267.91845228 282.82714844 262.35009766 C282.1230809 259.91160469 282.1230809 259.91160469 279.83691406 258.76318359 C279.2075293 258.53711426 278.57814453 258.31104492 277.9296875 258.078125 C277.1046875 258.861875 276.2796875 259.645625 275.4296875 260.453125 C268.85616322 266.69797307 257.02681413 265.71349222 248.59765625 266.20117188 C240.8247815 266.6845592 240.8247815 266.6845592 233.9296875 270.078125 C232.38247703 272.34933562 232.38247703 272.34933562 231.4296875 274.953125 C229.82244311 278.5333649 229.05519971 279.97614633 225.9296875 282.515625 C220.73143299 286.95580072 219.01172028 293.26483978 216.6015625 299.53125 C211.16454396 313.57190227 204.93593743 326.67914221 194.9296875 338.078125 C193.95515625 339.34849609 193.95515625 339.34849609 192.9609375 340.64453125 C186.77552794 348.05512771 179.166167 350.50220959 169.88441467 351.35934448 C159.14212015 352.13867261 148.44293095 352.22437158 137.67578125 352.2109375 C135.7255909 352.21161443 133.77540064 352.21258766 131.82521057 352.21383667 C127.74308466 352.2153034 123.66098075 352.21319765 119.57885742 352.20849609 C114.4709642 352.20288578 109.36312407 352.20612591 104.25523281 352.21193504 C84.53730212 352.23095783 64.82891552 352.15381582 45.1171875 351.625 C44.36706831 351.605051 43.61694912 351.58510201 42.84409904 351.56454849 C-17.78223437 349.90517702 -17.78223437 349.90517702 -26.0703125 342.078125 C-27.1796875 340.03515625 -27.1796875 340.03515625 -27.8203125 337.890625 C-28.04203125 337.19582031 -28.26375 336.50101563 -28.4921875 335.78515625 C-33.94676088 310.24448494 -31.23143486 281.72378659 -31.19908524 255.75813675 C-31.19527353 252.41898816 -31.19323287 249.07984246 -31.19161987 245.74069214 C-31.1727814 212.53901844 -30.98332963 179.34040884 -30.6328125 146.140625 C-30.6229557 145.18589043 -30.61309891 144.23115585 -30.60294342 143.24748993 C-30.37481475 121.18236201 -30.04342402 99.12035477 -29.59375 77.05859375 C-29.57479235 76.09225573 -29.55583469 75.1259177 -29.53630257 74.13029671 C-28.28806631 11.27125095 -28.28806631 11.27125095 -21.0703125 3.078125 C-14.39527212 -3.16519635 -8.61038202 -2.67388913 0 0 Z M248.9296875 171.078125 C246.51481807 173.49299443 246.633495 174.20520289 246.6171875 177.515625 C246.60042969 178.29808594 246.58367187 179.08054687 246.56640625 179.88671875 C247.0133088 182.58255028 247.76834396 183.45197129 249.9296875 185.078125 C252.47199597 185.49491797 252.47199597 185.49491797 254.9296875 185.078125 C257.19308449 183.21811685 257.19308449 183.21811685 257.3046875 180.328125 C256.834414 176.25242137 255.58526425 174.17629787 252.9296875 171.078125 C251.6096875 171.078125 250.2896875 171.078125 248.9296875 171.078125 Z " fill="#43DC73" transform="translate(129.0703125,351.921875)"/>
<path d="M0 0 C6.12745635 0.002326 12.25491026 -0.0012607 18.38236606 -0.00397992 C29.63475713 -0.00811565 40.88714274 -0.00783297 52.13953367 -0.00506845 C62.58543237 -0.00251619 73.0313291 -0.00191275 83.47722805 -0.0030911 C84.17999567 -0.00316748 84.88276329 -0.00324387 85.6068269 -0.00332257 C88.46286484 -0.00363413 91.31890279 -0.00395255 94.17494073 -0.00428233 C120.84165525 -0.00732412 147.50836638 -0.00459932 174.17508038 0.00081457 C197.55393595 0.00552522 220.93278606 0.00516146 244.31164157 0.00035357 C270.8457423 -0.0050855 297.37984 -0.00707586 323.9139412 -0.00403416 C326.78323221 -0.00371371 329.65252322 -0.00340084 332.52181423 -0.0030911 C333.22780534 -0.00301202 333.93379646 -0.00293294 334.66118124 -0.00285147 C344.35212889 -0.00181639 354.04307453 -0.00266795 363.7340219 -0.00507797 C420.54262951 -0.01897939 477.34816985 0.07898006 534.15491419 0.54509321 C537.94949706 0.57600567 541.74408755 0.60577202 545.53868103 0.63534975 C560.76467566 0.75603623 575.98985008 0.90806737 591.21471775 1.13072467 C592.08193735 1.14301693 592.94915695 1.15530918 593.84265593 1.16797394 C598.41928847 1.23487128 602.99499462 1.31742219 607.57071669 1.43107747 C609.44761241 1.47567164 611.32478875 1.50795003 613.20194751 1.53959167 C614.29775624 1.57222795 615.39356497 1.60486423 616.52258003 1.63848948 C617.44080246 1.66114623 618.35902489 1.68380297 619.30507225 1.70714629 C622.21471775 2.13072467 622.21471775 2.13072467 630.21471775 5.13072467 C630.21471775 270.45072467 630.21471775 535.77072467 630.21471775 809.13072467 C482.73565525 809.16166217 482.73565525 809.16166217 332.27721775 809.19322467 C285.92716281 809.20688067 285.92716281 809.20688067 238.64074314 809.22081256 C200.53979099 809.22532916 200.53979099 809.22532916 182.63193882 809.22616839 C171.0860836 809.22702975 159.54023304 809.2300004 147.99437909 809.23521222 C24.56368454 809.29077967 24.56368454 809.29077967 -22.75232327 808.68712115 C-23.92869575 808.67236479 -23.92869575 808.67236479 -25.12883334 808.65731032 C-42.24992509 808.44065332 -59.36612742 808.09349098 -76.48265469 807.64282489 C-77.24804464 807.62305524 -78.01343459 807.60328558 -78.80201817 807.58291685 C-88.76423651 807.32250931 -98.70951038 806.93762487 -108.66028225 806.38072467 C-109.65237964 806.33225943 -110.64447702 806.28379419 -111.66663796 806.23386031 C-119.190087 805.70937246 -126.38209135 804.21015301 -133.72717679 802.57506061 C-135.32481617 802.22337314 -135.32481617 802.22337314 -136.95473111 801.86458087 C-139.56554982 801.28944134 -142.17569392 800.71141664 -144.78528225 800.13072467 C-144.80247177 737.74791284 -144.81836409 675.36510074 -144.82762539 612.98228717 C-144.82776345 612.05475181 -144.82790151 611.12721646 -144.82804375 610.17157397 C-144.83103866 589.99978889 -144.83380855 569.82800379 -144.83634758 549.65621865 C-144.83759461 539.75986258 -144.8388912 529.86350651 -144.84021389 519.96715045 C-144.84034465 518.98249471 -144.84047541 517.99783897 -144.84061013 516.98334518 C-144.84484962 485.23290511 -144.85234428 453.48246685 -144.86157947 421.73202787 C-144.87107512 389.02571777 -144.87718214 356.31940866 -144.87919724 323.61309719 C-144.87948528 318.96303837 -144.87981091 314.31297954 -144.8801595 309.66292071 C-144.88022692 308.7479801 -144.88029434 307.83303949 -144.88036381 306.8903734 C-144.88153235 292.33224665 -144.88613395 277.77412304 -144.89211429 263.21599755 C-144.89809207 248.47730198 -144.9002282 233.73860942 -144.89878363 218.99991268 C-144.89810334 211.0559944 -144.89888162 203.11208438 -144.90448773 195.16816783 C-144.92686679 162.15752034 -144.77946277 129.15597769 -144.30943692 96.14830279 C-144.29859449 95.38477351 -144.28775206 94.62124422 -144.27658108 93.83457768 C-143.588407 45.66437263 -143.588407 45.66437263 -142.78528225 27.13072467 C-142.75643948 26.44365436 -142.72759671 25.75658404 -142.69787991 25.04869342 C-142.60223289 22.87745753 -142.49265026 20.70733823 -142.37903225 18.53697467 C-142.3139346 17.24082232 -142.24883694 15.94466998 -142.18176663 14.60924029 C-141.80918967 11.34047393 -141.36299695 9.0061367 -139.78528225 6.13072467 C-122.87225984 -2.45085439 -97.05051886 0.90434155 -78.49477017 0.58412433 C-77.29814555 0.5628406 -76.10152092 0.54155687 -74.86863495 0.51962818 C-49.91181464 0.08216431 -24.96007654 -0.01412249 0 0 Z M45.41199297 22.56048208 C43.22653317 22.57579024 41.04107166 22.59082221 38.8556093 22.60575891 C21.65947407 22.7235177 4.46379625 22.86816538 -12.73180783 23.04928088 C-18.39941352 23.1083537 -24.06702533 23.15909964 -29.73475277 23.20484424 C-36.5735392 23.26023716 -43.41212287 23.32681434 -50.25067974 23.40570237 C-53.88209409 23.44730469 -57.51339923 23.48420129 -61.14497268 23.50869656 C-65.14097323 23.53589398 -69.13636375 23.58619608 -73.13211453 23.63850665 C-74.90559588 23.64545208 -74.90559588 23.64545208 -76.71490514 23.65253782 C-82.83279414 23.75305536 -87.37425877 24.19622741 -92.78528225 27.13072467 C-92.9074212 29.47220698 -92.9074212 29.47220698 -91.78528225 32.13072467 C-82.98277153 40.22076064 -70.04665666 39.48452587 -58.8516885 39.72447467 C-57.42097266 39.76124472 -55.99027301 39.79864976 -54.55958951 39.83665729 C-50.96610103 39.92954137 -47.37247435 40.01138076 -43.77860653 40.08806109 C-41.94736274 40.12725562 -40.11616696 40.16867697 -38.28497708 40.21031451 C0.80316977 41.08739357 39.91205272 41.32813103 79.0076865 41.65416217 C79.66760369 41.65967174 80.32752088 41.66518132 81.00743556 41.67085785 C157.04928917 42.30362438 233.09188655 42.28414589 309.13585519 42.26018599 C323.78698262 42.25566211 338.43810215 42.25654252 353.08922946 42.26109576 C370.46845482 42.26649493 387.84767557 42.26853278 405.22690165 42.2654835 C407.08927254 42.26516518 408.95164343 42.2648508 410.81401432 42.26454043 C411.72852082 42.26438616 412.64302733 42.26423188 413.58524616 42.26407293 C419.8705946 42.26322796 426.15593992 42.26464468 432.44128788 42.26701999 C479.97638179 42.2905033 479.97638179 42.2905033 527.50670993 41.68101764 C528.53219645 41.66133874 529.55768296 41.64165985 530.61424482 41.62138462 C559.33843903 43.27937902 559.33843903 43.27937902 584.58971775 34.81822467 C586.20182052 32.1520547 586.8634499 30.20431834 587.21471775 27.13072467 C580.52808817 22.67297162 570.25121905 23.88162447 562.4089011 23.60286212 C561.28180803 23.56150917 560.15471497 23.52015622 558.99346757 23.47755015 C545.70127362 23.01208183 532.40627725 22.77358832 519.10778415 22.57652545 C517.71753713 22.55535614 516.32729019 22.53418201 514.93704331 22.51300335 C480.34502563 21.99347343 445.75270237 21.98267573 411.15751054 21.99542426 C404.63107332 21.99776296 398.1046387 21.99797267 391.57820117 21.9969089 C390.62638999 21.99675567 389.6745788 21.99660244 388.69392485 21.99644456 C386.75556714 21.99612458 384.81720943 21.99580036 382.87885173 21.99547197 C364.88057957 21.9926506 346.88231257 21.99584443 328.88404126 22.00127234 C313.81197241 22.0056801 298.73991144 22.00495856 283.66784275 22.00035357 C204.24815298 21.97679893 124.83004942 22.00116753 45.41199297 22.56048208 Z M-124.78528225 53.13072467 C-125.96846828 58.51078863 -125.98546949 63.97490534 -126.08218777 69.46269488 C-126.10147737 70.37805719 -126.12076696 71.29341949 -126.14064109 72.23652005 C-126.20307601 75.28679182 -126.25850166 78.33713932 -126.31311429 81.38756061 C-126.33354739 82.46129035 -126.35398049 83.53502008 -126.37503278 84.64128709 C-126.88972776 111.73243107 -127.13280396 138.82594274 -127.32496589 165.92100394 C-127.34017115 168.04954252 -127.35572186 170.17807832 -127.37136996 172.30661368 C-127.99070937 256.73700669 -127.93794281 341.16937239 -127.91474411 425.60154134 C-127.91023227 442.34580922 -127.91108926 459.09007017 -127.91565335 475.83433795 C-127.9210639 495.69101686 -127.92308316 515.54769172 -127.92004108 535.40437126 C-127.91972277 537.53708609 -127.9194084 539.66980092 -127.91909802 541.80251575 C-127.91894374 542.84974507 -127.91878947 543.8969744 -127.91863052 544.97593795 C-127.91778793 552.15062977 -127.9191972 559.32531885 -127.92157757 566.50001025 C-127.9329668 604.25911229 -127.90717688 642.01489265 -127.37091371 679.77084595 C-127.34010942 681.94672078 -127.31033853 684.122608 -127.28065717 686.29849839 C-129.44192864 717.03915956 -129.44192864 717.03915956 -122.21496975 744.94322467 C-121.50727444 745.53103717 -121.50727444 745.53103717 -120.78528225 746.13072467 C-117.12727815 745.31783487 -115.2581628 744.78937972 -113.03528225 741.69322467 C-107.59003536 726.17427102 -108.57653879 708.51863546 -108.25574124 692.26378131 C-108.21396105 690.25688553 -108.17209929 688.24999145 -108.13016045 686.24309897 C-107.73235969 666.83051414 -107.45882492 647.41734188 -107.2579385 628.00181842 C-107.2478681 627.05251098 -107.23779769 626.10320355 -107.22742212 625.12512922 C-106.53558611 559.8104745 -106.45343482 494.49031532 -106.27523883 429.17271297 C-106.23799402 415.5222361 -106.1986822 401.87176669 -106.15759671 388.22130084 C-106.15487244 387.31602411 -106.15214816 386.41074738 -106.14934134 385.47803802 C-106.13836853 381.83347831 -106.12738902 378.18891863 -106.1163992 374.54435897 C-106.06865516 358.69788578 -106.02227663 342.85140853 -105.97622278 327.00493035 C-105.96892261 324.49440815 -105.96160179 321.98388601 -105.95427978 319.47336388 C-105.7006002 253.27426698 -105.7006002 253.27426698 -105.968876 187.07603717 C-105.98893964 184.72926626 -106.00896312 182.38249501 -106.02894986 180.03572345 C-106.07056792 175.2052365 -106.11361497 170.37476485 -106.15759671 165.54429889 C-106.21295593 159.43633152 -106.26308606 153.32833285 -106.31199944 147.22031093 C-106.35139646 142.40685321 -106.39434799 137.59343164 -106.438223 132.78001285 C-106.45819502 130.52956846 -106.47696601 128.279113 -106.49435627 126.02864718 C-106.58820208 114.06849558 -106.8032154 102.12194547 -107.25037014 90.16929889 C-107.28944957 89.10863774 -107.328529 88.0479766 -107.36879265 86.95517421 C-107.2116711 69.53487337 -107.2116711 69.53487337 -114.28528225 54.54869342 C-118.47341407 51.11311654 -120.02481764 49.95708159 -124.78528225 53.13072467 Z M595.40221775 60.94322467 C591.83631729 66.13925104 591.991539 71.91721686 591.66125095 78.07481647 C591.61926987 78.85746466 591.57728879 79.64011285 591.53403556 80.44647765 C591.03668346 90.63609211 591.05050619 100.82587443 591.0701865 111.02525592 C591.07113 112.17308866 591.07207351 113.32092139 591.07304561 114.50353694 C591.11622498 151.35101852 591.8019193 188.19510987 592.37572634 225.03716743 C592.69383006 245.49819241 592.99662667 265.95945253 593.29838359 286.42072415 C593.33382183 288.82325767 593.36930249 291.22579057 593.40482509 293.62832284 C594.00666127 334.34332843 594.54642311 375.05890094 595.046749 415.77525592 C595.05515572 416.45907792 595.06356245 417.14289991 595.07222393 417.84744379 C595.42790765 446.78576011 595.77553908 475.7241721 596.12063205 504.66261649 C596.93127424 596.05710186 596.93127424 596.05710186 599.03478611 687.42662311 C599.15714501 691.15589863 599.26711702 694.88543237 599.37682712 698.61509967 C599.74265674 710.40670202 600.26634125 722.16545601 601.19128025 733.92759967 C601.2704317 734.93789233 601.34958316 735.948185 601.43113315 736.98909259 C601.9476467 749.78048763 601.9476467 749.78048763 606.812374 760.98228717 C607.27514743 761.36127154 607.73792087 761.74025592 608.21471775 762.13072467 C612.1727508 760.81138032 614.70393603 759.50729319 617.21471775 756.13072467 C621.1505035 745.30731386 620.36543037 732.37392332 620.3917197 721.03184772 C620.39819743 719.75597954 620.40467515 718.48011136 620.41134918 717.16558051 C620.42864926 713.59331723 620.43904439 710.02106553 620.44742095 706.44877124 C620.4531326 704.08720294 620.46014789 701.72564129 620.46742618 699.36407733 C620.5028635 687.50564987 620.51745717 675.64724184 620.52512205 663.7887671 C620.52721418 660.82328577 620.53000286 657.85780577 620.53293598 654.89232516 C620.6243612 555.79763845 619.50693439 456.71033745 618.3120082 344.57480365 C618.2772431 341.32059811 618.24253993 338.06639192 618.20785558 334.81218553 C617.88484682 304.51214429 617.55569487 274.21217411 617.21978402 243.91227317 C617.18771102 241.01662081 617.15572448 238.12096751 617.12376487 235.2253139 C616.71478765 198.18577798 616.29658913 161.14626041 615.77695346 124.10808313 C615.73740078 121.28780023 615.69900545 118.46750614 615.66181183 115.64719117 C615.56056801 108.07704676 615.43803906 100.50781284 615.28571379 92.93851948 C615.23615033 90.28023769 615.19322977 87.62258357 615.15945351 84.96411943 C615.11458821 81.46770517 615.05020792 77.97212065 614.97288639 74.47627922 C614.93430358 72.51403874 614.91510576 70.5514474 614.89639407 68.58891684 C614.86671403 67.40684202 614.83703398 66.2247672 614.80645454 65.00687194 C614.77982352 63.4455057 614.77982352 63.4455057 614.75265449 61.8525967 C614.07914627 58.44475515 612.93207422 57.23602787 610.21471775 55.13072467 C603.89250307 54.16864852 599.79613624 56.54930618 595.40221775 60.94322467 Z M-26.78528225 75.13072467 C-28.57482327 75.18462359 -28.57482327 75.18462359 -30.40051663 75.23961139 C-49.99824233 75.11662903 -49.99824233 75.11662903 -67.78528225 82.13072467 C-80.19130697 95.82219291 -75.90826775 129.43970256 -76.3048135 147.16588092 C-76.33590868 148.51575312 -76.33590868 148.51575312 -76.36763203 149.89289546 C-76.88133228 172.36586387 -77.14573651 194.84057084 -77.34778225 217.31822467 C-77.35812245 218.44460597 -77.36846264 219.57098727 -77.37911618 220.73150134 C-78.17552576 308.04818385 -78.09729289 395.38019415 -77.36332619 523.37641501 C-77.34798909 525.60072776 -77.33291072 527.82504212 -77.31791317 530.04935718 C-77.10276543 561.8713855 -76.78753135 593.69084614 -76.281376 625.50963092 C-76.25013732 627.48192676 -76.25013732 627.48192676 -76.21826756 629.49406695 C-75.77675865 658.31986779 -75.77675865 658.31986779 -74.78528225 687.13072467 C-74.74600613 688.11243136 -74.74600613 688.11243136 -74.70593655 689.11397052 C-74.37824009 697.01526306 -73.99707956 704.56042014 -71.28528225 712.06822467 C-71.05969632 712.75078326 -70.83411038 713.43334186 -70.6016885 714.13658404 C-69.65379827 717.3919994 -69.65379827 717.3919994 -67.78528225 720.13072467 C-66.39656865 720.28230138 -65.00062082 720.36828928 -63.60490811 720.42734027 C-62.70068552 720.46789129 -61.79646294 720.50844232 -60.86483967 720.55022216 C-59.86236258 720.59024258 -58.85988549 720.63026299 -57.8270303 720.67149615 C-56.77394743 720.71723427 -55.72086457 720.76297238 -54.6358701 720.8100965 C-51.10643119 720.96206445 -47.57674081 721.10702008 -44.047001 721.25181842 C-41.56738824 721.35677929 -39.08778945 721.46207084 -36.60820401 721.56767535 C-29.94658384 721.84974202 -23.28470497 722.12502891 -16.62270749 722.3979938 C-12.47268802 722.56804306 -8.32273928 722.73977945 -4.17279446 722.91163898 C36.94917817 724.61265362 78.06646789 726.21325379 119.21471775 727.13072467 C120.09242076 727.15043826 120.97012378 727.17015185 121.87442386 727.19046283 C136.49311905 727.51865873 151.11213425 727.82985834 165.73146427 728.12840915 C167.79110506 728.17051166 169.85074175 728.21281533 171.91037357 728.25535464 C186.73201361 728.56133344 201.55407263 728.83007767 216.37694919 729.06880832 C218.99512281 729.11104843 221.6132857 729.15371961 224.23144138 729.19703555 C286.06802794 730.21673119 347.90293399 730.31945255 409.74685521 730.31591291 C420.59620691 730.31549501 431.44552487 730.3252464 442.29486676 730.33916577 C453.63496005 730.35359397 464.97503163 730.3602511 476.31513619 730.35957199 C482.60413437 730.35932005 488.89309317 730.36200581 495.18208301 730.37275004 C501.04523378 730.38251245 506.9083077 730.38245527 512.77146137 730.37523341 C514.89689614 730.37420068 517.02233598 730.37647066 519.14776218 730.38259387 C530.0626472 730.41197703 540.9031878 730.15932899 551.78805149 729.30304217 C552.74558059 729.23388982 553.70310969 729.16473747 554.68965483 729.09348959 C559.72679094 728.64790751 563.9899322 728.15885517 568.21471775 725.13072467 C569.13822517 722.9642062 569.13822517 722.9642062 569.05508029 720.42524981 C569.09232337 719.43837554 569.12956645 718.45150126 569.16793811 717.43472171 C569.18337539 716.34440269 569.19881267 715.25408366 569.21471775 714.13072467 C569.2644461 712.98601325 569.31417446 711.84130183 569.36540973 710.66190219 C569.54092164 706.58113487 569.66261546 702.50136088 569.76891696 698.41832232 C569.8003604 697.24596746 569.8003604 697.24596746 569.83243906 696.04992867 C570.44477792 672.51912707 570.36070114 648.9802214 570.34892952 625.44330835 C570.34750917 621.47020425 570.34786033 617.49710293 570.34909999 613.52399898 C570.34941254 612.51788123 570.34941254 612.51788123 570.3497314 611.49143788 C570.35016458 610.12508043 570.3506018 608.75872298 570.35104299 607.39236554 C570.35512421 593.84793935 570.35182963 580.30352147 570.34553331 566.75909656 C570.34485111 565.29084893 570.34417016 563.8226013 570.34349048 562.35435367 C570.34315272 561.6257243 570.34281497 560.89709494 570.34246698 560.1463859 C570.339161 552.74987765 570.33775451 545.35336931 570.33643385 537.95686049 C570.32132809 455.68430147 570.23286902 373.41362442 569.24917972 281.32653308 C569.20369575 277.10860701 569.16029165 272.89066074 569.11696041 268.67271209 C568.87850792 245.49103218 568.60161748 222.3104415 568.21471775 199.13072467 C568.19644931 198.02603839 568.17818088 196.92135211 568.15935886 195.78319049 C567.4368764 150.25153937 567.4368764 150.25153937 563.83971775 104.88072467 C563.68720554 103.45469928 563.68720554 103.45469928 563.53161228 101.99986529 C562.45696045 93.48282559 560.01003777 85.32135483 555.21471775 78.13072467 C548.64361079 74.84517119 538.67453199 75.89512876 531.40221775 75.63072467 C530.28540622 75.5901192 529.1685947 75.54951373 528.0179404 75.50767779 C443.53509565 72.6010297 358.93564179 72.97283566 255.45581526 73.00126335 C243.53177744 73.00573665 231.60774954 73.0049046 219.68371189 73.00035357 C96.43386704 72.75074996 96.43386704 72.75074996 -26.78528225 75.13072467 Z M-2.83922914 761.52865797 C-6.95860222 761.56020803 -11.07798088 761.59074564 -15.19736832 761.62035945 C-22.27623528 761.67129607 -29.35504179 761.72721905 -36.43382657 761.78852487 C-38.76621813 761.80823576 -41.09862103 761.8266591 -43.43103421 761.84362149 C-54.23448242 761.92373922 -65.03737983 762.05175381 -75.83398831 762.4627254 C-77.02188356 762.49466186 -77.02188356 762.49466186 -78.23377669 762.52724349 C-84.83696312 762.82655297 -90.21182129 764.41508402 -95.78528225 768.13072467 C-96.70418649 770.49685014 -96.70418649 770.49685014 -95.78528225 773.13072467 C-85.84122307 782.12405985 -70.56335926 781.15726201 -58.03856289 781.61685443 C-57.02329608 781.65603649 -56.00802927 781.69521856 -54.96199679 781.73558795 C-51.60887618 781.86311233 -48.25559281 781.98520768 -44.90222561 782.10606647 C-43.72162686 782.14920832 -42.5410281 782.19235018 -41.32465363 782.23679936 C-13.63606363 783.24076405 14.05843498 783.87945151 41.75905144 784.43777323 C45.43985284 784.51201033 49.12062646 784.58754169 52.80139381 784.66344599 C146.68194662 786.5988987 240.57346987 787.96601537 334.46261792 789.40608598 C353.83746005 789.70327152 373.21226093 790.00302763 392.5870322 790.30479693 C393.87889299 790.32491773 395.17075378 790.34503853 396.50176186 790.36576905 C399.10557427 790.40632529 401.70938667 790.44688187 404.31319907 790.48743879 C405.59843713 790.50745738 406.8836752 790.52747597 408.20785987 790.54810119 C409.49051941 790.56808057 410.77317895 790.58805995 412.09470696 790.60864476 C432.07596388 790.91980699 452.05724885 791.22916069 472.03853844 791.53821712 C478.01626794 791.63068542 483.99399599 791.7232457 489.97172081 791.81601572 C502.42318527 792.00925092 514.87465824 792.20189267 527.32616396 792.3924528 C532.45093137 792.4708931 537.57569277 792.54967955 542.70043933 792.62947154 C547.3936872 792.70252903 552.08695055 792.77449372 556.78022819 792.84561191 C558.46797587 792.87136784 560.15571782 792.89750349 561.84345282 792.92407724 C571.96836373 793.08322061 582.08844454 793.16366389 592.21471775 793.13072467 C592.82523866 784.49702886 592.82523866 784.49702886 589.671749 776.68931842 C578.17639936 764.39268435 560.54484653 764.35894428 544.91369236 763.60899615 C543.61731169 763.54598772 543.61731169 763.54598772 542.29474151 763.48170638 C532.79341455 763.03843948 523.29041491 762.79552016 513.781124 762.60338092 C512.79768072 762.582963 511.81423744 762.56254508 510.80099285 762.54150844 C480.76445309 761.92909276 450.72207114 761.76082215 420.68048084 761.58328032 C418.13210737 761.56810491 415.58373647 761.55255079 413.03536594 761.53689075 C342.52425264 761.10487715 272.01268703 761.02162884 201.50046819 761.00861126 C193.10096391 761.00702435 184.70146164 761.00410271 176.30195826 760.99990064 C116.58689343 760.970063 56.87419476 761.0711846 -2.83922914 761.52865797 Z " fill="#000000" transform="translate(144.78528225421906,-0.13072466850280762)"/>
<path d="M0 0 C0.69287109 0.00451172 1.38574219 0.00902344 2.09960938 0.01367188 C3.79561068 0.02536844 5.49156703 0.04330076 7.1875 0.0625 C7.21044317 30.27908374 7.22807634 60.49566703 7.23856533 90.71225755 C7.23981564 94.30101026 7.24111 97.88976294 7.24243164 101.47851562 C7.24282511 102.54994402 7.24282511 102.54994402 7.24322652 103.64301744 C7.24754663 115.12265038 7.25541346 126.60227817 7.2646528 138.08190808 C7.27409215 149.91105141 7.27957705 161.7401921 7.28158849 173.56933904 C7.28282291 180.19249837 7.28585364 186.81564843 7.29323006 193.43880463 C7.34381102 240.9732433 7.34381102 240.9732433 6.80639648 262.77832031 C6.78359373 263.84562512 6.78359373 263.84562512 6.76033032 264.93449163 C6.2397907 288.13309775 6.2397907 288.13309775 2.8739996 292.93736649 C-2.2258648 297.42855846 -7.3381645 297.33798809 -13.8125 297.0625 C-27.21196968 294.99548364 -39.83143237 290.00643516 -52.47509766 285.29882812 C-58.13595357 283.20178538 -63.81875962 281.16601654 -69.5 279.125 C-70.54478516 278.74770752 -71.58957031 278.37041504 -72.66601562 277.98168945 C-75.379515 277.00292969 -78.09533585 276.03102956 -80.8125 275.0625 C-81.90691406 274.670625 -83.00132812 274.27875 -84.12890625 273.875 C-87.09596293 272.97667716 -90.001591 272.48960037 -93.0625 272 C-122.84000976 266.44960848 -152.19466825 251.57091049 -179.80566406 239.37597656 C-189.27064889 235.21603772 -198.7143516 231.54542819 -208.6875 228.8125 C-222.44383124 224.88279629 -237.06915851 220.43601307 -248.8125 212.0625 C-249.72 211.485 -250.6275 210.9075 -251.5625 210.3125 C-262.09623731 199.77876269 -263.68166844 184.72275317 -264.1640625 170.52001953 C-264.18830292 169.81315002 -264.21254333 169.10628052 -264.23751831 168.37799072 C-264.44755901 161.91289755 -264.5734562 155.44603754 -264.67181396 148.97836494 C-264.73896107 144.64768012 -264.83498429 140.32184049 -264.99902344 135.99365234 C-265.15783422 131.78230439 -265.241675 127.5753813 -265.27459717 123.36123276 C-265.29961219 121.76677936 -265.35056564 120.17249549 -265.42901611 118.57977676 C-265.99661453 106.51996545 -265.99661453 106.51996545 -262.35363579 102.42105293 C-258.7622756 99.38449162 -254.81235607 97.1015594 -250.6280632 94.98221779 C-248.16788204 93.73595306 -245.81316418 92.32354761 -243.44140625 90.91796875 C-219.8620708 78.25302501 -194.77912037 69.29104004 -169.5916748 60.43713379 C-134.7627713 48.19235469 -100.37744449 34.8736164 -66.27780151 20.7328186 C-15.75070518 -0.19594179 -15.75070518 -0.19594179 0 0 Z " fill="#43DC73" transform="translate(363.8125,107.9375)"/>
<path d="M0 0 C6.77037975 0.47974678 13.0234918 1.56290894 19.52734375 3.48828125 C20.42186752 3.74901932 21.3163913 4.00975739 22.23802185 4.27839661 C33.85347622 7.74664626 45.20114252 11.97515573 56.5625 16.1875 C58.87923751 17.04122091 61.19605132 17.89473481 63.51293945 18.74804688 C91.79082531 29.18551288 119.60089304 40.29197539 146.90234375 53.09667969 C165.7583419 62.16156711 165.7583419 62.16156711 185.6875 68.3125 C208.51055346 73.68082575 233.23635163 87.10649488 252 101 C252.68650635 101.46792969 253.3730127 101.93585938 254.08032227 102.41796875 C258.22350185 105.53220531 260.43630291 107.88734852 261.33203125 113.078125 C261.53093349 115.13203272 261.68802113 117.19024175 261.8125 119.25 C261.90958252 120.39243164 262.00666504 121.53486328 262.10668945 122.71191406 C262.31985837 125.31734951 262.51738515 127.91947376 262.69238281 130.52734375 C262.96751821 134.61598909 263.28934588 138.70003665 263.616745 142.78479004 C266.24101725 175.66665649 266.24101725 175.66665649 266.375 191.75 C266.38877686 192.62237305 266.40255371 193.49474609 266.41674805 194.39355469 C266.37742702 199.55457096 265.71422916 203.47270868 263 208 C258.38597073 212.43799201 253.0127492 215.25705724 247.125 217.625 C246.3294873 217.95145508 245.53397461 218.27791016 244.71435547 218.61425781 C230.67317422 224.25554993 216.32155669 229.12682471 202 234 C201.28841736 234.24234375 200.57683472 234.4846875 199.84368896 234.734375 C176.78451891 242.56822627 153.47309074 249.46969538 130.05004883 256.12988281 C102.21963004 264.07446678 102.21963004 264.07446678 75.125 274.1875 C54.68541297 282.60516838 30.38548908 288.89023665 8.25 289.3125 C6.95578125 289.34988281 5.6615625 289.38726562 4.328125 289.42578125 C1 289 1 289 -0.8828125 287.2578125 C-4.33145373 280.28818092 -4.19534297 272.05421874 -4.54660034 264.41888428 C-4.58929169 263.49820089 -4.63198303 262.5775175 -4.67596805 261.62893462 C-5.10458087 251.66372342 -5.14083833 241.70809847 -5.12939453 231.73535156 C-5.13075437 229.70387745 -5.13253753 227.67240359 -5.13470459 225.64093018 C-5.13921092 220.19024949 -5.13751743 214.73958802 -5.1343255 209.28890705 C-5.13176496 203.53779873 -5.13414974 197.78669189 -5.13571167 192.0355835 C-5.13752328 182.37951365 -5.13515426 172.72345149 -5.13037109 163.06738281 C-5.12493662 151.96969238 -5.12668931 140.87202036 -5.1321975 129.77433038 C-5.13676492 120.18123731 -5.13736138 110.58814972 -5.13475883 100.99505591 C-5.13321508 95.29420913 -5.13294906 89.59337092 -5.13629532 83.89252472 C-5.1747543 7.76213145 -5.1747543 7.76213145 0 0 Z " fill="#43DC73" transform="translate(409,111)"/>
</svg>
