<?xml version="1.0" standalone="no"?>
<!DOCTYPE svg PUBLIC "-//W3C//DTD SVG 20010904//EN"
 "http://www.w3.org/TR/2001/REC-SVG-20010904/DTD/svg10.dtd">
<svg version="1.0" xmlns="http://www.w3.org/2000/svg"
 width="186.000000pt" height="194.000000pt" viewBox="0 0 186.000000 194.000000"
 preserveAspectRatio="xMidYMid meet">

<g transform="translate(0.000000,194.000000) scale(0.100000,-0.100000)"
fill="#000000" stroke="none">
<path d="M11 1921 c-7 -12 -11 -345 -11 -958 l0 -940 51 -11 c37 -9 292 -12
930 -12 l879 0 0 964 0 964 -22 6 c-13 3 -427 6 -920 6 -870 0 -898 -1 -907
-19z m1745 -42 c3 -6 0 -18 -9 -26 -13 -13 -114 -15 -783 -14 -423 1 -784 5
-803 9 -38 8 -52 28 -24 35 10 2 377 5 815 6 574 1 799 -2 804 -10z m-1675
-76 c12 -13 14 -146 12 -781 0 -420 -4 -789 -8 -818 -5 -44 -10 -54 -26 -54
-19 0 -19 17 -19 828 0 456 3 832 7 835 10 11 20 8 34 -10z m1741 -5 c2 -20 5
-215 12 -964 7 -639 6 -701 -9 -714 -38 -32 -40 -14 -47 633 -4 342 -9 710
-11 817 -3 107 -1 205 4 218 9 23 48 31 51 10z m-143 -43 c30 -32 33 -100 37
-815 3 -471 1 -730 -5 -740 -9 -13 -75 -15 -513 -12 -277 1 -618 8 -759 14
l-257 11 -11 37 c-12 40 -15 1316 -3 1430 7 63 8 65 42 76 45 15 1454 14 1469
-1z m59 -1659 c21 -11 32 -24 32 -38 l0 -21 -447 7 c-818 12 -1128 18 -1168
25 -48 8 -54 33 -10 41 17 4 374 5 795 5 697 -2 768 -3 798 -19z"/>
<path d="M750 1644 c-112 -47 -193 -78 -320 -123 -58 -20 -124 -49 -147 -64
l-43 -27 0 -101 c0 -128 10 -150 85 -178 31 -12 60 -21 64 -21 5 0 40 -14 78
-31 80 -36 172 -69 191 -69 8 0 47 -14 89 -30 92 -37 128 -39 137 -7 3 12 6
172 6 355 l0 332 -27 0 c-16 0 -66 -16 -113 -36z"/>
<path d="M983 1673 c-10 -4 -13 -82 -13 -344 0 -298 2 -340 15 -346 21 -7 130
15 180 37 22 10 76 28 120 40 121 33 287 89 313 106 23 15 24 18 17 122 -4 59
-9 115 -11 125 -5 17 -157 97 -185 97 -8 0 -48 16 -89 36 -41 20 -97 44 -125
54 -27 10 -86 32 -130 48 -44 16 -86 27 -92 25z"/>
<path d="M257 1083 c-13 -16 -16 -71 -19 -405 -3 -350 -1 -389 14 -404 14 -14
48 -17 240 -21 139 -3 234 0 250 6 30 11 68 66 87 124 7 20 16 37 21 37 5 0
12 9 15 20 5 16 15 20 50 20 24 0 47 5 50 10 9 15 25 12 25 -4 0 -7 15 -42 33
-77 74 -142 68 -139 283 -139 176 0 286 13 305 36 16 20 17 48 9 427 -6 290
-10 351 -22 364 -14 13 -24 12 -94 -11 -179 -58 -462 -141 -479 -141 -10 0
-55 -53 -55 -65 0 -3 23 -30 51 -58 76 -78 50 -76 -30 1 -48 46 -77 67 -94 67
-14 0 -28 7 -31 15 -6 17 -40 33 -161 77 -127 46 -408 138 -421 138 -6 0 -18
-8 -27 -17z m671 -416 c2 -10 -3 -17 -12 -17 -10 0 -16 9 -16 21 0 24 23 21
28 -4z"/>
</g>
</svg>
